<?xml version="1.0" encoding="UTF-8" standalone="no"?> <svg id="Layer_1" data-name="Layer 1" xmlns="http://www.w3.org/2000/svg" viewBox="0 0 128 128"><defs><style>.cls-1{fill:#2d3e50;}</style></defs><title>x</title><path class="cls-1" d="M115.72583,55.87492h-3.57629a48.55193,48.55193,0,0,0-8.3544-20.17478l2.53127-2.53127A8.12838,8.12838,0,0,0,94.83114,21.67359l-2.53127,2.53127a48.47462,48.47462,0,0,0-20.169-8.34859v-3.5821a8.128,8.128,0,0,0-16.25594,0v3.57629a48.55154,48.55154,0,0,0-20.17478,8.3544l-2.53131-2.53127A8.12633,8.12633,0,0,0,21.6794,33.16886l2.53127,2.53127A48.48374,48.48374,0,0,0,15.8505,55.87492H12.27417a8.128,8.128,0,1,0,0,16.25594h3.5821a48.40677,48.40677,0,0,0,8.3544,20.169L21.6794,94.83114a8.12633,8.12633,0,1,0,11.48945,11.49527l2.53131-2.53127A48.551,48.551,0,0,0,55.875,112.1495v3.57633a8.128,8.128,0,1,0,16.25594,0v-3.5821a48.47462,48.47462,0,0,0,20.169-8.34859l2.53127,2.53127a8.12838,8.12838,0,0,0,11.49527-11.49527l-2.53127-2.53131a48.47423,48.47423,0,0,0,8.34859-20.169h3.5821a8.128,8.128,0,1,0,0-16.25594ZM92.4392,80.9439A33.21681,33.21681,0,0,1,80.94393,92.4392a32.75575,32.75575,0,0,1-8.813,3.65758,33.10117,33.10117,0,1,1,0-64.19356,32.75575,32.75575,0,0,1,8.813,3.65758A33.162,33.162,0,0,1,96.09678,72.13086,32.7548,32.7548,0,0,1,92.4392,80.9439Z"/></svg>